<svg xmlns="http://www.w3.org/2000/svg" viewBox="40 10 740 540"><defs><linearGradient id="g" x1="0" y1="0" x2="1" y2="1"><stop offset="0" stop-color="#00f0ff"/><stop offset="1" stop-color="#ff2bd6"/></linearGradient></defs><rect x="40" y="10" width="740" height="540" rx="110" fill="#05060a"/><path d="M 110 285 C 100 200, 170 120, 270 95 C 370 70, 500 65, 590 100 C 670 130, 720 200, 722 275 C 724 330, 690 362, 640 368 C 600 372, 575 368, 545 378 C 515 388, 480 392, 450 388 C 420 396, 390 410, 350 418 C 310 424, 270 415, 250 392 C 235 375, 235 355, 215 350 C 185 346, 135 335, 110 285 Z" fill="none" stroke="url(#g)" stroke-width="26" stroke-linejoin="round"/><line x1="190" y1="235" x2="300" y2="150" stroke="url(#g)" stroke-width="14" stroke-opacity=".7"/><line x1="300" y1="150" x2="430" y2="125" stroke="url(#g)" stroke-width="14" stroke-opacity=".7"/><line x1="430" y1="125" x2="560" y2="150" stroke="url(#g)" stroke-width="14" stroke-opacity=".7"/><line x1="560" y1="150" x2="650" y2="250" stroke="url(#g)" stroke-width="14" stroke-opacity=".7"/><line x1="650" y1="250" x2="540" y2="300" stroke="url(#g)" stroke-width="14" stroke-opacity=".7"/><line x1="540" y1="300" x2="420" y2="255" stroke="url(#g)" stroke-width="14" stroke-opacity=".7"/><line x1="420" y1="255" x2="330" y2="320" stroke="url(#g)" stroke-width="14" stroke-opacity=".7"/><line x1="330" y1="320" x2="190" y2="235" stroke="url(#g)" stroke-width="14" stroke-opacity=".7"/><line x1="300" y1="150" x2="420" y2="255" stroke="url(#g)" stroke-width="14" stroke-opacity=".7"/><line x1="430" y1="125" x2="420" y2="255" stroke="url(#g)" stroke-width="14" stroke-opacity=".7"/><line x1="560" y1="150" x2="540" y2="300" stroke="url(#g)" stroke-width="14" stroke-opacity=".7"/><line x1="420" y1="255" x2="490" y2="470" stroke="url(#g)" stroke-width="14" stroke-opacity=".7"/><line x1="540" y1="300" x2="600" y2="420" stroke="url(#g)" stroke-width="14" stroke-opacity=".7"/><line x1="600" y1="420" x2="490" y2="470" stroke="url(#g)" stroke-width="14" stroke-opacity=".7"/><circle cx="190" cy="235" r="26" fill="url(#g)"/><circle cx="300" cy="150" r="26" fill="url(#g)"/><circle cx="430" cy="125" r="26" fill="url(#g)"/><circle cx="560" cy="150" r="26" fill="url(#g)"/><circle cx="650" cy="250" r="26" fill="url(#g)"/><circle cx="540" cy="300" r="26" fill="url(#g)"/><circle cx="420" cy="255" r="26" fill="url(#g)"/><circle cx="330" cy="320" r="26" fill="url(#g)"/><circle cx="600" cy="420" r="26" fill="url(#g)"/><circle cx="490" cy="470" r="26" fill="url(#g)"/></svg>